<svg xmlns="http://www.w3.org/2000/svg" viewBox="0 0 64 64">
  <defs>
    <linearGradient id="g" x1="0" x2="1" y1="0" y2="1">
      <stop offset="0" stop-color="#fbbf24"/>
      <stop offset="1" stop-color="#f59e0b"/>
    </linearGradient>
  </defs>
  <rect width="64" height="64" rx="14" fill="#fffaf3"/>
  <path
    d="M32 10c-9 0-16 7.2-16 16.1 0 5.8 3 11 7.8 13.9 1.4.9 2.2 2.4 2.2 4.1V46c0 1.1.9 2 2 2h8c1.1 0 2-.9 2-2v-1.9c0-1.7.9-3.2 2.2-4.1C45 37.1 48 31.9 48 26.1 48 17.2 41 10 32 10z"
    fill="url(#g)"
  />
  <path d="M26 52h12a2 2 0 0 1 2 2v1a3 3 0 0 1-3 3H27a3 3 0 0 1-3-3v-1a2 2 0 0 1 2-2z" fill="#6b705c"/>
  <path d="M26.5 48h11" stroke="#6b705c" stroke-width="2.5" stroke-linecap="round"/>
  <path d="M24 26a8 8 0 0 1 16 0" fill="none" stroke="#fff" stroke-width="3" stroke-linecap="round" opacity="0.85"/>
</svg>
